HIERARCHY
ROOT HipCenter
{
    OFFSET 0.0 0.0 -0.0
    CHANNELS 6 Xposition Yposition Zposition Zrotation Xrotation Yrotation
    JOINT Spine
    {
        OFFSET 0.0 11.616289138793945 0.0
        CHANNELS 3 Zrotation Xrotation Yrotation
        JOINT ShoulderCenter
        {
            OFFSET 0.0 32.14043045043945 0.0
            CHANNELS 3 Zrotation Xrotation Yrotation
            JOINT LeftShoulder
            {
                OFFSET 20.30788230895996 0.0 0.0
                CHANNELS 3 Zrotation Xrotation Yrotation
                JOINT LeftElbow
                {
                    OFFSET 27.910465240478516 0.0 0.0
                    CHANNELS 3 Zrotation Xrotation Yrotation
                    JOINT LeftWrist
                    {
                        OFFSET 28.445663452148438 0.0 0.0
                        CHANNELS 3 Zrotation Xrotation Yrotation
                        JOINT LeftHand
                        {
                            OFFSET 3.929109573364258 0.0 0.0
                            CHANNELS 3 Zrotation Xrotation Yrotation
                            End Site
                            {
                                OFFSET 1.5716438293457031 0.0 0.0
                            }
                        }
                    }
                }
            }
            JOINT RightShoulder
            {
                OFFSET -20.30788230895996 0.0 0.0
                CHANNELS 3 Zrotation Xrotation Yrotation
                JOINT RightElbow
                {
                    OFFSET -27.910465240478516 0.0 0.0
                    CHANNELS 3 Zrotation Xrotation Yrotation
                    JOINT RightWrist
                    {
                        OFFSET -28.445663452148438 0.0 0.0
                        CHANNELS 3 Zrotation Xrotation Yrotation
                        JOINT RightHand
                        {
                            OFFSET -3.929109573364258 0.0 0.0
                            CHANNELS 3 Zrotation Xrotation Yrotation
                            End Site
                            {
                                OFFSET -1.5716438293457031 0.0 0.0
                            }
                        }
                    }
                }
            }
            End Site
            {
                OFFSET 0.0 12.856170654296875 0.0
            }
        }
    }
    JOINT LeftHip
    {
        OFFSET 14.176698684692383 0.0 0.0
        CHANNELS 3 Zrotation Xrotation Yrotation
        JOINT LeftKnee
        {
            OFFSET 0.0 -42.84436798095703 0.0
            CHANNELS 3 Zrotation Xrotation Yrotation
            JOINT LeftAnkle
            {
                OFFSET 0.0 -40.93027877807617 0.0
                CHANNELS 3 Zrotation Xrotation Yrotation
                JOINT LeftFoot
                {
                    OFFSET 0.0 -12.580310821533203 0.0
                    CHANNELS 3 Zrotation Xrotation Yrotation
                    End Site
                    {
                        OFFSET 0.0 0.0 5.0321245193481445
                    }
                }
            }
        }
    }
    JOINT RightHip
    {
        OFFSET -14.176698684692383 0.0 0.0
        CHANNELS 3 Zrotation Xrotation Yrotation
        JOINT RightKnee
        {
            OFFSET 0.0 -42.84436798095703 0.0
            CHANNELS 3 Zrotation Xrotation Yrotation
            JOINT RightAnkle
            {
                OFFSET 0.0 -40.93027877807617 0.0
                CHANNELS 3 Zrotation Xrotation Yrotation
                JOINT RightFoot
                {
                    OFFSET 0.0 -12.580310821533203 0.0
                    CHANNELS 3 Zrotation Xrotation Yrotation
                    End Site
                    {
                        OFFSET 0.0 0.0 5.0321245193481445
                    }
                }
            }
        }
    }
}
MOTION
Frames: 5
Frame Time: 0.03333333333333333
52.39999771118164 -4.300000190734863 -193.5 -2.009561436228226 10.916232496990531 3.978576224606287 2.459839926821456 -0.853685654700984 -0.0012257981992023904 3.583827775991949e-08 -8.620638807769818e-08 -14.999121752500166 112.52465080896067 -29.73138484260339 -175.23295723505987 -3.0059346787836803e-07 -4.6392786156426775e-07 111.48623680459082 179.999993099825 -78.57115542611503 -147.37307988030256 1.9878466759146985e-16 -2.069018577211012e-33 -1.1927080055488192e-15 -91.43220783682632 -8.857188437817143 -134.54566533687708 -4.299546043629236e-06 1.2905685689116235e-06 -81.81765252723841 -2.4536678072827296e-06 -30.17113412342557 -56.64293420638981 -1.272221872585407e-14 0.0 0.0 -1.3198116113315401 10.261710289877971 -29.502537057501193 -10.024773002381215 22.273785817017714 -10.642218169986858 36.79727824523723 -32.14874564398827 43.908449991877255 1.987846675914698e-16 1.2424041724466862e-17 -1.0871036508908504e-16 9.595213736489464 -42.216084752749424 -15.909729771856714 -25.52453991274096 43.09430933175394 57.62254663754242 -94.30242365196617 -52.50112537363303 -142.90363514746397 0.0 -4.770832022195275e-15 0.0
52.20000076293945 -3.9000000953674316 -185.6999969482422 -1.0050706469222856 9.949125857737187 3.7773385655432667 1.8744666674353962 -0.19534107118707034 -0.005579550112523257 -2.3039308577093247e-07 -8.201462944541297e-07 -14.276742263460637 110.09223151397245 -33.33150007483426 -179.77154261777372 1.559872628307243e-06 2.2908829491444685e-06 108.15500805916395 179.99999423884802 -83.9210312825071 -149.4919984534064 0.0 0.0 -1.0684675883041504e-15 -90.64849521852614 -7.92466935069972 -138.37355946906322 1.9718053392417863e-06 -2.0034497209448366e-06 -82.55256121256538 3.3807921559852263e-06 -29.893445587414387 -55.3580548518027 3.180554681463516e-15 -6.3611093629270335e-15 -9.54166404439055e-15 -2.1451644662389557 8.153511463852851 -26.850752408963352 -15.661710416951323 32.73850345700096 -11.508336847827909 44.983261917998966 -33.99652064087532 46.709808492457185 0.0 0.0 2.2363275104040355e-16 8.089202675473018 -38.86435174886545 -15.665654913523348 -18.4160626604704 36.63862079005635 48.17306340307929 -97.34937787948174 -58.36524533217737 -146.75315341166322 -3.1805546814635164e-15 6.3611093629270335e-15 -6.3611093629270335e-15
52.0 -4.699999809265137 -178.40000915527344 -1.0050899172549286 10.435934709626967 2.6411564262776266 2.569232505738448 -0.674614826832773 -0.016991446131481694 1.888866425208549e-07 -3.118033829377569e-07 -12.83514066515313 103.8165540228363 -34.169342391149655 172.09873783029107 -3.6961037318944094e-06 -3.2175537263904974e-06 105.1320898261286 179.99999134908234 -86.90591602658687 -148.34702998566948 9.939233379573492e-17 7.951386703658792e-16 -4.373262687012335e-15 -90.69062300594193 -8.556283658731804 -144.9976335014916 8.460930234503502e-07 -1.9131786680482113e-06 -84.4741205700994 -4.6196392237164373e-07 -27.166729218609824 -55.464834554586105 3.1805546814635164e-15 0.0 0.0 -1.8069930179574947 0.42428428214148073 -22.116885270677173 -25.88960954462067 50.06633585277709 -10.068702892627064 51.52405572554209 -32.83383622682134 43.02984254312666 -3.9756933518293955e-16 -8.276074308844047e-33 2.385416011097637e-15 8.880453679639647 -36.78463739772817 -12.506512780406757 -14.60694046560299 36.39996828416618 44.15237214029913 -93.33221109649222 -56.45383309631251 -141.8604401000921 3.1805546814635176e-15 -6.361109362927035e-15 -3.1805546814635176e-15
51.89999771118164 -6.700000286102295 -171.1999969482422 -0.4982229926766963 9.865440635110845 0.4435517019855987 3.0044285634556305 1.108119689017552 -0.043758624260731266 1.3275182108051253e-07 5.444766440794569e-07 -9.734485406770379 99.46150902972522 -32.96393046434636 165.5110197931757 1.995723304527989e-06 1.8302561268825013e-06 100.28056947831892 -179.99998298881576 -88.48105422029174 -148.08681352926405 -1.9878466759146977e-16 1.9878466759146977e-16 2.2363275104040347e-15 -93.05008460614633 -10.7337563997377 -156.39558366753604 -2.264024766429847e-06 -2.114347716309011e-06 -87.23494697191799 -1.6409963879042773e-06 -28.393174200911883 -55.10380798816329 0.0 0.0 0.0 -0.6362961658866549 -7.586079738204461 -17.22282403597882 -50.79941393479927 66.87102225079063 5.34881964688968 62.1536038690979 -27.68121739508638 38.67863593167657 -7.951386703658792e-16 -1.5902773407317584e-15 -2.087239009710433e-15 10.180978109910761 -32.77057478779675 -4.543662271855871 -9.870230077839409 40.740232932098834 38.87412964400155 -95.00692568206439 -56.60814057094105 -136.24093476860935 -3.1805546814635168e-15 6.3611093629270335e-15 1.7655625192200634e-31
52.0 -8.800000190734863 -164.5 -3.470522730297119e-08 10.922788650598678 -3.888311567125155 3.4004194190388275 2.6518786735715736 -0.2551290078984445 -3.0791721891320765e-07 -9.766625355485665e-07 -5.2604605151320945 97.5526945898145 -28.815387679736936 160.96907166079032 -1.5949693123922788e-06 3.7087106037285777e-06 93.17744187256046 -179.99996869439764 -86.8095843023766 -146.02424808498134 2.2069531490250793e-31 -3.1805546814635164e-15 7.95138670365879e-15 -98.37475773999172 -14.281208656202388 -173.04117029767522 2.308939314352739e-06 -1.915683424191902e-06 -90.36790245326516 1.1885062807377026e-06 -31.43877033239479 -55.09788125817071 6.361109362927033e-15 0.0 0.0 2.3439594570110467 -19.126087006787742 -7.640622916204005 -108.36315813137499 75.31681893219219 54.724827288785704 68.49800377915186 -24.171967791842995 31.66864084797025 -7.951386703658792e-16 1.3793457181406746e-32 -1.987846675914698e-15 13.40893282057211 -31.817920960859443 2.3576677373191046 -9.831805100270431 46.751318721680626 37.00570300574571 -101.6222581767818 -56.63692830720072 -136.28669396770985 -2.2069531490250793e-32 -7.951386703658792e-16 -3.1805546814635168e-15
